<svg width="46" height="36" viewBox="0 0 46 36" fill="none" xmlns="http://www.w3.org/2000/svg">
<path d="M10.9098 5.17179C8.26718 4.12751 3.85397 2.03895 7.34226 2.03895C10.8305 2.03895 12.4955 2.56109 12.8919 2.82216C13.024 2.30002 13.6847 1.25574 15.2703 1.25574C15.6924 1.25574 16.0786 1.22021 16.4595 1.17564C17.8667 1.01093 19.2013 0.722759 22.009 1.64735C25.5766 2.82216 32.3153 7.12982 35.8829 11.0459C39.4505 14.9619 43.018 21.6192 43.8108 24.3604C44.445 26.5534 44.8679 32.3231 45 34.9338C40.7718 35.0643 31.7604 35.0904 29.5405 34.1506C26.7658 32.9758 23.991 32.1925 21.6126 29.8429C20.7879 29.0282 19.4866 27.5464 18.1153 25.9269C17.9598 26.1879 17.5694 26.8667 17.2523 27.4933C16.8559 28.2765 12.4955 31.0177 9.32432 31.8009C6.78739 32.4275 2.71772 32.062 1 31.8009C1 29.4513 1.3964 24.0472 2.98198 21.2276C4.56757 18.408 8.3994 14.8314 10.1171 13.3955C9.72072 9.87106 9.32432 7.91303 9.72072 6.73822C10.0378 5.79837 10.6456 5.30233 10.9098 5.17179Z" fill="#180B02"/>
<path d="M10.9098 5.17179C8.26718 4.12751 3.85397 2.03895 7.34226 2.03895C10.8305 2.03895 12.4955 2.56109 12.8919 2.82216C13.024 2.30002 13.6847 1.25574 15.2703 1.25574C15.6924 1.25574 16.0786 1.22021 16.4595 1.17564M10.9098 5.17179C10.6456 5.30233 10.0378 5.79837 9.72072 6.73822C9.32432 7.91303 9.72072 9.87106 10.1171 13.3955M10.9098 5.17179L17.6486 13.7871C17.7808 13.9176 19.2342 15.4318 23.991 20.4444C28.7477 25.4569 39.979 32.1925 45 34.9338M45 34.9338C44.8679 32.3231 44.445 26.5534 43.8108 24.3604C43.018 21.6192 39.4505 14.9619 35.8829 11.0459C32.3153 7.12982 25.5766 2.82216 22.009 1.64735C19.2013 0.722759 17.8667 1.01093 16.4595 1.17564M45 34.9338C40.7718 35.0643 31.7604 35.0904 29.5405 34.1506C26.7658 32.9758 23.991 32.1925 21.6126 29.8429C20.7879 29.0282 19.4866 27.5464 18.1153 25.9269M45 34.9338C42.4895 28.2765 36.1207 14.0221 30.7297 10.2627C25.3387 6.50326 18.97 2.63823 16.4595 1.17564M10.1171 13.3955C10.4342 16.2151 12.3634 19.0085 13.2883 20.0528C13.983 20.9221 14.9796 22.1538 16.0631 23.468M10.1171 13.3955C8.3994 14.8314 4.56757 18.408 2.98198 21.2276C1.3964 24.0472 1 29.4513 1 31.8009M1 31.8009C2.71772 32.062 6.78739 32.4275 9.32432 31.8009C12.4955 31.0177 16.8559 28.2765 17.2523 27.4933C17.5694 26.8667 17.9598 26.1879 18.1153 25.9269M1 31.8009C3.51051 31.4093 9.16577 29.9996 11.7027 27.4933C14.2396 24.987 15.6667 23.7655 16.0631 23.468M1 31.8009C1.92492 29.0597 4.32973 23.264 6.54955 22.0108C8.76937 20.7577 11.4384 19.6612 12.4955 19.2696M18.1153 25.9269C17.4318 25.1196 16.7309 24.2782 16.0631 23.468" stroke="#F3E6DA"/>
</svg>
