<svg width="34" height="27" viewBox="0 0 34 27" fill="none" xmlns="http://www.w3.org/2000/svg">
<path d="M8.20715 4.06749C6.28522 3.29964 3.07561 1.76394 5.61255 1.76394C8.14949 1.76394 9.36034 2.14786 9.64865 2.33983C9.74475 1.9559 10.2252 1.18805 11.3784 1.18805C11.6854 1.18805 11.9663 1.16192 12.2432 1.12914C13.2667 1.00804 14.2373 0.796147 16.2793 1.47599C18.8739 2.33983 23.7748 5.50722 26.3694 8.38667C28.964 11.2661 31.5586 16.1612 32.1351 18.1768C32.5964 19.7893 32.9039 24.0317 33 25.9513C29.9249 26.0473 23.3712 26.0665 21.7568 25.3754C19.7387 24.5116 17.7207 23.9357 15.991 22.208C15.3912 21.6089 14.4448 20.5194 13.4475 19.3286C13.3344 19.5205 13.0505 20.0196 12.8198 20.4804C12.5315 21.0562 9.36036 23.0719 7.05405 23.6478C5.20901 24.1085 2.24925 23.8397 1 23.6478C1 21.9201 1.28829 17.9464 2.44144 15.8732C3.59459 13.8 6.38138 11.1701 7.63063 10.1143C7.34234 7.52284 7.05405 6.08311 7.34234 5.21928C7.57297 4.52821 8.01498 4.16348 8.20715 4.06749Z" fill="#F3E6DA"/>
<path d="M8.20715 4.06749C6.28522 3.29964 3.07561 1.76394 5.61255 1.76394C8.14949 1.76394 9.36034 2.14786 9.64865 2.33983C9.74474 1.9559 10.2252 1.18805 11.3784 1.18805C11.6854 1.18805 11.9663 1.16192 12.2432 1.12914M8.20715 4.06749C8.01497 4.16348 7.57297 4.52821 7.34234 5.21928C7.05405 6.08311 7.34234 7.52284 7.63063 10.1143M8.20715 4.06749L13.1081 10.4023C13.2042 10.4983 14.2613 11.6117 17.7207 15.2973C21.1802 18.983 29.3483 23.9357 33 25.9513M33 25.9513C32.9039 24.0317 32.5964 19.7893 32.1351 18.1768C31.5586 16.1612 28.964 11.2661 26.3694 8.38667C23.7748 5.50722 18.8739 2.33983 16.2793 1.47599C14.2373 0.796147 13.2667 1.00804 12.2432 1.12914M33 25.9513C29.9249 26.0473 23.3712 26.0665 21.7568 25.3754C19.7387 24.5116 17.7207 23.9357 15.991 22.208C15.3912 21.6089 14.4448 20.5194 13.4475 19.3286M33 25.9513C31.1742 21.0562 26.5423 10.5751 22.6216 7.81078C18.7009 5.04651 14.0691 2.20458 12.2432 1.12914M7.63063 10.1143C7.86126 12.1875 9.26426 14.2416 9.93694 15.0094C10.4422 15.6486 11.167 16.5543 11.955 17.5206M7.63063 10.1143C6.38138 11.1701 3.59459 13.8 2.44144 15.8732C1.28829 17.9464 1 21.9201 1 23.6478M1 23.6478C2.24925 23.8397 5.20901 24.1085 7.05405 23.6478C9.36036 23.0719 12.5315 21.0562 12.8198 20.4804C13.0505 20.0196 13.3344 19.5205 13.4475 19.3286M1 23.6478C2.82583 23.3598 6.93874 22.3232 8.78378 20.4804C10.6288 18.6375 11.6667 17.7393 11.955 17.5206M1 23.6478C1.67267 21.6321 3.42162 17.3706 5.03604 16.4491C6.65045 15.5277 8.59159 14.7215 9.36036 14.4335M13.4475 19.3286C12.9504 18.735 12.4407 18.1163 11.955 17.5206" stroke="#180B02"/>
</svg>
